<?xml version="1.0" encoding="UTF-8" standalone="no"?>
<!-- Created with Inkscape (http://www.inkscape.org/) -->

<svg
   version="1.1"
   id="svg25"
   xml:space="preserve"
   width="106.66667"
   height="154.66667"
   viewBox="0 0 106.66667 154.66667"
   sodipodi:docname="tile.svg"
   inkscape:version="1.1.2 (0a00cf5339, 2022-02-04)"
   xmlns:inkscape="http://www.inkscape.org/namespaces/inkscape"
   xmlns:sodipodi="http://sodipodi.sourceforge.net/DTD/sodipodi-0.dtd"
   xmlns="http://www.w3.org/2000/svg"
   xmlns:svg="http://www.w3.org/2000/svg"><defs
     id="defs29" /><sodipodi:namedview
     id="namedview27"
     pagecolor="#ffffff"
     bordercolor="#666666"
     borderopacity="1.0"
     inkscape:pageshadow="2"
     inkscape:pageopacity="0.0"
     inkscape:pagecheckerboard="0"
     showgrid="false"
     inkscape:zoom="3.515417"
     inkscape:cx="63.577096"
     inkscape:cy="83.631616"
     inkscape:window-width="1600"
     inkscape:window-height="832"
     inkscape:window-x="0"
     inkscape:window-y="0"
     inkscape:window-maximized="1"
     inkscape:current-layer="g33" /><g
     id="g31"
     inkscape:groupmode="layer"
     inkscape:label="ink_ext_XXXXXX"
     transform="matrix(1.3333333,0,0,-1.3333333,0,154.66667)"><g
       id="g33"
       transform="matrix(0.09978731,0,0,0.09941193,-0.47471791,0.56041289)"><path
         d="M 72.5469,1158.57 H 5.07422 V -6.46484 H 72.5469 V 1158.57"
         style="fill:#000000;fill-opacity:1;fill-rule:nonzero;stroke:none"
         id="path35" /><path
         d="M 119.027,710.25 V 651.273 L 245.977,805.711 363.43,654.77 v 61.476 L 246.477,865.688 119.027,710.25"
         style="fill:#000000;fill-opacity:1;fill-rule:nonzero;stroke:none"
         id="path37" /><path
         d="M 119.027,951.652 V 790.715 L 244.477,944.156 363.43,792.715 V 959.648 L 247.477,1108.09 119.027,951.652"
         style="fill:#000000;fill-opacity:1;fill-rule:nonzero;stroke:none"
         id="path39" /><path
         d="M 763.27,1158.57 H 699.797 L 763.27,1077.6 Z"
         style="fill:#000000;fill-opacity:1;fill-rule:nonzero;stroke:none"
         id="path41" /><path
         d="M 472.387,1158.57 H 404.914 V -6.46484 h 67.473 V 1158.57"
         style="fill:#000000;fill-opacity:1;fill-rule:nonzero;stroke:none"
         id="path43" /><path
         d="M 518.867,995.133 V 936.156 L 645.816,1090.6 763.27,939.656 v 61.474 L 646.316,1150.57 518.867,995.133"
         style="fill:#000000;fill-opacity:1;fill-rule:nonzero;stroke:none"
         id="path45" /><path
         d="M 763.27,657.27 647.316,805.711 518.867,649.273 V 488.336 L 644.316,641.777 763.27,490.336 V 657.27"
         style="fill:#000000;fill-opacity:1;fill-rule:nonzero;stroke:none"
         id="path47" /><path
         d="m 518.867,1158.57 v -82.97 l 67.973,82.97 z"
         style="fill:#000000;fill-opacity:1;fill-rule:nonzero;stroke:none"
         id="path49" /><path
         d="M 763.27,413.867 646.316,563.309 518.867,407.867 V 348.895 L 645.816,503.332 763.27,352.391 v 61.476"
         style="fill:#000000;fill-opacity:1;fill-rule:nonzero;stroke:none"
         id="path51" /><path
         d="M 363.43,128.98 246.477,278.422 119.027,122.984 V 64.0078 L 245.977,218.445 363.43,67.5039 V 128.98"
         style="fill:#000000;fill-opacity:1;fill-rule:nonzero;stroke:none"
         id="path53" /><path
         d="M 363.43,205.449 V 372.383 L 247.477,520.824 119.027,364.387 V 203.449 L 244.477,356.891 363.43,205.449"
         style="fill:#000000;fill-opacity:1;fill-rule:nonzero;stroke:none"
         id="path55" /><path
         d="M 518.867,71.5039 V -6.46484 H 586.84 L 644.316,64.0078 699.797,-6.46484 H 763.27 V 79.5 L 647.316,227.941 518.867,71.5039"
         style="fill:#000000;fill-opacity:1;fill-rule:nonzero;stroke:none"
         id="path57" /></g></g></svg>
